# xmcd
#
# Track frame offsets:
#	150
#	17408
#	33696
#	46460
#	58026
#	84466
#	100927
#	113003
#	130698
#	148623
#	162310
#	182482
#	194971
#	227196
#	249203
#	263873
#	273286
#
# Disc length: 3994 seconds
#
# Revision: 0
# Processed by: cddbd v1.5.1PL0 Copyright (c) Steve Scherf et al.
# Submitted via: audiograbber 1.83.01
#
DISCID=ea0f9811
DTITLE=Bluesbreakers - Bluesbreakers LIVE 1984!
DYEAR=1984
DGENRE=Rythm and Blues
TTITLE0=Stormy monday.wav
TTITLE1=All your lovin is lovin.wav
TTITLE2=Shake your Moneymaker.wav
TTITLE3=Flatfootsam.wav
TTITLE4=Mean old world.wav
TTITLE5=Got my mojo working.wav
TTITLE6=Get out of my life Woman.wav
TTITLE7=Hootchie.wav
TTITLE8=Gloria.wav
TTITLE9=Red House Blues.wav
TTITLE10=Walking Blues.wav
TTITLE11=Mary had alittle lamp.wav
TTITLE12=Spoonful.wav
TTITLE13=Stormy Monday.wav
TTITLE14=Mona.wav
TTITLE15=Route 66.wav
TTITLE16=Mean old World.wav
EXTD=
EXTT0=
EXTT1=
EXTT2=
EXTT3=
EXTT4=
EXTT5=
EXTT6=
EXTT7=
EXTT8=
EXTT9=
EXTT10=
EXTT11=
EXTT12=
EXTT13=
EXTT14=
EXTT15=
EXTT16=
PLAYORDER=
